<?xml version="1.0" encoding="UTF-8" standalone="no"?>
<!DOCTYPE svg PUBLIC "-//W3C//DTD SVG 1.1//EN" "http://www.w3.org/Graphics/SVG/1.1/DTD/svg11.dtd">
<svg width="100%" height="100%" viewBox="0 0 39 39" version="1.1" xmlns="http://www.w3.org/2000/svg" xmlns:xlink="http://www.w3.org/1999/xlink" xml:space="preserve" xmlns:serif="http://www.serif.com/" style="fill-rule:evenodd;clip-rule:evenodd;stroke-linecap:round;stroke-linejoin:round;stroke-miterlimit:1.5;">
    <g transform="matrix(1,0,0,1,-202,-123)">
        <g transform="matrix(1.05723,0,0,1.09355,-20.2289,-36.2807)">
            <rect x="4" y="3" width="1258" height="791" style="fill:rgb(44,42,41);"/>
        </g>
        <g id="option-arrow" transform="matrix(1,0,0,1,125.687,9.47239)">
            <g id="expanded">
                <g id="middle-expanded" transform="matrix(1,0,0,1,-0.3183,-96.0006)">
                    <path d="M95.318,212.937C95.318,212.937 95.192,246.064 95.318,246.064" style="fill:none;stroke:white;stroke-width:4px;"/>
                </g>
                <g id="left-expanded" transform="matrix(1,0,0,1,-0.3183,-96.0006)">
                    <path d="M79.318,228.076L95.318,212.937" style="fill:none;stroke:white;stroke-width:4px;"/>
                </g>
                <g id="right-expanded" transform="matrix(-1,0,0,1,190.318,-96.0006)">
                    <path d="M78.318,228.076L95.318,212.937" style="fill:none;stroke:white;stroke-width:4px;"/>
                </g>
            </g>
            <g id="collapsed">
                <g id="left-collapsed" transform="matrix(1,0,0,1,7.6817,-96.0006)">
                    <path d="M77.318,228.076L80.005,228.076" style="fill:none;stroke:white;stroke-width:4px;"/>
                </g>
                <g id="middle-collapsed" transform="matrix(1,0,0,1,-0.3183,-96.0006)">
                    <path d="M95.318,225.937L95.318,229.196" style="fill:none;stroke:white;stroke-width:4px;"/>
                </g>
                <g id="right-collapsed" transform="matrix(-1,0,0,1,182.318,-96.0006)">
                    <path d="M75.318,228.076L78.327,228.076" style="fill:none;stroke:white;stroke-width:4px;"/>
                </g>
            </g>
        </g>
        <g id="check">
        </g>
        <g id="book">
        </g>
        <g id="padlock">
        </g>
    </g>
</svg>
