<?xml version="1.0" encoding="UTF-8" standalone="no"?>
<!DOCTYPE svg PUBLIC "-//W3C//DTD SVG 1.1//EN" "http://www.w3.org/Graphics/SVG/1.1/DTD/svg11.dtd">
<svg width="100%" height="100%" viewBox="0 0 159 153" version="1.1" xmlns="http://www.w3.org/2000/svg" xmlns:xlink="http://www.w3.org/1999/xlink" xml:space="preserve" xmlns:serif="http://www.serif.com/" style="fill-rule:evenodd;clip-rule:evenodd;stroke-linecap:round;stroke-linejoin:round;stroke-miterlimit:1.5;">
    <g transform="matrix(1,0,0,1,-266,-116)">
        <g id="padlock">
            <g id="base" transform="matrix(1,0,0,1,259.75,108.889)">
                <path d="M118.75,85.75C118.75,82.691 116.267,80.208 113.208,80.208L11.792,80.208C8.733,80.208 6.25,82.691 6.25,85.75L6.25,153.833C6.25,156.892 8.733,159.375 11.792,159.375L113.208,159.375C116.267,159.375 118.75,156.892 118.75,153.833L118.75,85.75ZM68.75,118.528L68.75,106.802C68.75,98.949 67.243,92.583 65.385,92.583L59.615,92.583C57.757,92.583 56.25,98.949 56.25,106.802L56.25,118.528C51.918,120.788 48.958,125.322 48.958,130.542C48.958,138.016 55.026,144.083 62.5,144.083C69.974,144.083 76.042,138.016 76.042,130.542C76.042,125.322 73.082,120.788 68.75,118.528Z" style="fill:white;"/>
            </g>
            <g id="curve-t0" transform="matrix(1,0,0,1,259.75,106.805)">
                <path d="M25,82.292C25,19.37 87.601,12.773 100.729,62.5C102.266,68.324 103.125,74.922 103.125,82.292" style="fill:none;stroke:rgb(248,247,242);stroke-width:14.58px;"/>
            </g>
            <g id="curve-t1" transform="matrix(1,0,0,1,259.75,106.805)">
                <path d="M157.292,57.292C156.875,5.083 103.396,3.667 103.125,54.167C103.093,60.191 103.125,74.922 103.125,82.292" style="fill:none;stroke:white;stroke-width:14.58px;"/>
            </g>
        </g>
    </g>
</svg>
